<svg xmlns="http://www.w3.org/2000/svg" viewBox="0 0 1600 1200" role="img" aria-label="Video reel visual">
  <defs>
    <linearGradient id="bg" x1="0" y1="0" x2="1" y2="1">
      <stop offset="0%" stop-color="#111827"/>
      <stop offset="48%" stop-color="#6B1FAF"/>
      <stop offset="100%" stop-color="#EC198B"/>
    </linearGradient>
    <radialGradient id="glow" cx="50%" cy="30%" r="46%">
      <stop offset="0%" stop-color="#38BDF8" stop-opacity="0.34"/>
      <stop offset="100%" stop-color="#38BDF8" stop-opacity="0"/>
    </radialGradient>
    <filter id="blur"><feGaussianBlur stdDeviation="22"/></filter>
  </defs>
  <rect width="1600" height="1200" fill="url(#bg)"/>
  <ellipse cx="800" cy="250" rx="460" ry="260" fill="url(#glow)" filter="url(#blur)"/>
  <rect x="140" y="150" width="1320" height="900" rx="68" fill="rgba(255,255,255,0.05)" stroke="rgba(255,255,255,0.14)" stroke-width="2"/>
  <rect x="210" y="220" width="1180" height="760" rx="52" fill="rgba(15,23,42,0.82)"/>
  <rect x="270" y="280" width="330" height="200" rx="28" fill="rgba(255,255,255,0.12)"/>
  <rect x="640" y="280" width="330" height="200" rx="28" fill="rgba(255,255,255,0.12)"/>
  <rect x="1010" y="280" width="320" height="200" rx="28" fill="rgba(255,255,255,0.12)"/>
  <rect x="270" y="520" width="460" height="340" rx="32" fill="rgba(255,255,255,0.10)"/>
  <rect x="760" y="520" width="570" height="340" rx="32" fill="rgba(255,255,255,0.10)"/>
  <circle cx="1030" cy="690" r="130" fill="#EC198B" opacity="0.86"/>
  <circle cx="1030" cy="690" r="82" fill="#FFFFFF" opacity="0.14"/>
  <path d="M1030 610 L1080 690 L1030 770 L980 690 Z" fill="#0B1120"/>
  <path d="M326 350 C382 320, 442 320, 500 350" fill="none" stroke="#38BDF8" stroke-width="8" stroke-linecap="round"/>
  <path d="M694 350 C748 320, 812 320, 866 350" fill="none" stroke="#EC198B" stroke-width="8" stroke-linecap="round"/>
  <path d="M1064 350 C1118 320, 1182 320, 1238 350" fill="none" stroke="#E2E8F0" stroke-width="8" stroke-linecap="round"/>
</svg>
